{"title":"The Descent Part 2 2009 DVDRip Xvid BigPerm LKRG","uid":6361844,"size":1158381442,"categoryP":"video","categoryS":"movies","magnet":"?xt=urn:btih:f318fb4f3248c719ba3dfb3a9ba82449fc22be85&amp;dn=The+Descent+Part+2+2009+DVDRip+Xvid+BigPerm+LKRG&amp;tr=udp%3A%2F%2Ftracker.openbittorrent.com%3A80&amp;tr=udp%3A%2F%2Fopen.demonii.com%3A1337&amp;tr=udp%3A%2F%2Ftracker.coppersurfer.tk%3A6969&amp;tr=udp%3A%2F%2Fexodus.desync.com%3A6969","seeders":0,"leechers":1,"uploader":".BONE.","files":2,"time":1304358617,"description":"\nPLOT\n\nAn experienced rescue team composed by Dan, Greg and Cath is trying to locate the six women in the\ncaves of the Appalachian Mountains. Meanwhile Sarah is found wounded, covered with blood, in shock\nand amnesic by a truck driver and brought to the Hyett County Hospital. Sheriff Vaines suspects that\nSarah has killed her friends and forces her to return to the caves together with his Deputy Rios and\nthe rescue team. They search deeper and deeper in the caves but when Sarah recovers her memory, she\npanics and Sheriff Vaines shoots, provoking a cave-in. The trapped group sooner faces the hunger and\nsavage breed of predators while trying to find a way out. Written by Claudio Carvalho, Rio de Janeiro, Brazil\n &lt;a href=&quot;\nhttp://www.imdb.com/title/tt1073105/&quot; rel=&quot;nofollow&quot; target=&quot;_NEW&quot;&gt;\nhttp://www.imdb.com/title/tt1073105/&lt;/a&gt;\n\n\nEncoded By .......: BigPerm1828\nRuntime ..........: 1h 33mn\nFile Size ........: 1.08 GiB\nResolution .......: 704x396\nIMDb URL .........: http://www.imdb.com/title/tt1073105/\nLanguage .........: English\nVideo\nID : 0\nFormat : MPEG-4 Visual\nFormat profile : Advanced Simple@L5\nFormat settings, BVOP : Yes\nFormat settings, QPel : No\nFormat settings, GMC : No warppoints\nFormat settings, Matrix : Default (H.263)\nCodec ID : XVID\nCodec ID/Hint : XviD\nDuration : 1h 33mn\nBit rate : 64.7 Kbps\nWidth : 704 pixels\nHeight : 396 pixels\nDisplay aspect ratio : 16:9\nFrame rate : 29.970 fps\nColor space : YUV\nChroma subsampling : 4:2:0\nBit depth : 8 bits\nScan type : Progressive\nCompression mode : Lossy\nBits/(Pixel*Frame) : 0.008\nStream size : 43.3 MiB (4%)\nWriting library : XviD 1.2.1 (UTC 2008-12-04)\n\nAudio\nID : 1\nFormat : AC-3\nFormat/Info : Audio Coding 3\nCodec ID : 2000\nDuration : 1h 33mn\nBit rate mode : Constant\nBit rate : 448 Kbps\nChannel(s) : 6 channels\nSampling rate : 48.0 KHz\nBit depth : 16 bits\nCompression mode : Lossy\nStream size : 300 MiB (27%)\nAlignment : Aligned on interleaves\n &lt;a href=&quot;\nhttp://leetleech.org/images/37385858282219085431.png&quot; rel=&quot;nofollow&quot; target=&quot;_NEW&quot;&gt;\nhttp://leetleech.org/images/37385858282219085431.png&lt;/a&gt;\n &lt;a href=&quot;\nhttp://leetleech.org/images/40049308253660104275.png&quot; rel=&quot;nofollow&quot; target=&quot;_NEW&quot;&gt;\nhttp://leetleech.org/images/40049308253660104275.png&lt;/a&gt;\n &lt;a href=&quot;\nhttp://leetleech.org/images/40912138297774154732.png&quot; rel=&quot;nofollow&quot; target=&quot;_NEW&quot;&gt;\nhttp://leetleech.org/images/40912138297774154732.png&lt;/a&gt;\n &lt;a href=&quot;\nhttp://leetleech.org/images/25814599141475445145.png&quot; rel=&quot;nofollow&quot; target=&quot;_NEW&quot;&gt;\nhttp://leetleech.org/images/25814599141475445145.png&lt;/a&gt;\n &lt;a href=&quot;\nhttp://leetleech.org/images/71620847722190302802.png&quot; rel=&quot;nofollow&quot; target=&quot;_NEW&quot;&gt;\nhttp://leetleech.org/images/71620847722190302802.png&lt;/a&gt;","torrent":{"xt":"urn:btih:f318fb4f3248c719ba3dfb3a9ba82449fc22be85","amp;dn":"The+Descent+Part+2+2009+DVDRip+Xvid+BigPerm+LKRG","amp;tr":["udp%3A%2F%2Ftracker.openbittorrent.com%3A80","udp%3A%2F%2Fopen.demonii.com%3A1337","udp%3A%2F%2Ftracker.coppersurfer.tk%3A6969","udp%3A%2F%2Fexodus.desync.com%3A6969"],"infoHash":"f318fb4f3248c719ba3dfb3a9ba82449fc22be85","infoHashBuffer":{"type":"Buffer","data":[243,24,251,79,50,72,199,25,186,61,251,58,155,168,36,73,252,34,190,133]},"announce":[],"urlList":[]}}